<svg xmlns="http://www.w3.org/2000/svg" width="68" height="18" fill="none" viewBox="0 0 68 18">
<!-- SVG created with Arrow, by QuiverAI (https://quiver.ai) -->
  <path d="m58.69 0.34-2.66 2.71 4.26 4.07h-5.97c-4.71 0-6.97 2.07-9.1 3.87-1.57 1.33-2.5 1.8-3.82 1.77-2.23 0-3.39-1.62-5.33-4.3-1.98-2.79-4.06-5.62-7.91-5.62h-0.25c-3.09 0-5.25 1.37-7.49 2.72-1.67 1.02-2.84 1.5-5.53 1.5h-1.25c-0.85-2.74-3.06-4.78-6.37-4.78h-0.26c-3.6 0-6.33 3.11-6.33 6.68 0 3.6 3.05 6.69 6.59 6.69h0.01c3.2 0 5.49-2.08 6.39-4.89h1.21c3.74 0 5.68-1.07 7.66-2.23 1.95-1.11 3.27-2.06 5.37-2.06h0.12c2.31 0 3.51 1.75 5.37 4.37 1.99 2.79 4.08 5.62 8.03 5.62 3.13 0 4.88-1.62 6.9-3.24 1.95-1.59 3.27-2.49 6.2-2.49h5.7l-4.21 4.16 2.74 2.69 8.73-8.58-8.8-8.66z" fill="#272324"/>
</svg>